<svg xmlns="http://www.w3.org/2000/svg" width="38.133" height="35.409" viewBox="0 0 38.133 35.409">
  <path id="_298752_comment_discussion_icon" data-name="298752_comment_discussion_icon" d="M10.9,144.343v-8.171H2.724A2.668,2.668,0,0,0,0,138.9v13.619a2.742,2.742,0,0,0,2.724,2.724H5.448v8.171l8.256-8.171h8.171a2.763,2.763,0,0,0,2.639-2.724V149.79H16.343C10.9,149.79,10.9,144.343,10.9,144.343ZM35.409,128H16.343a2.668,2.668,0,0,0-2.724,2.724v13.619a2.763,2.763,0,0,0,2.639,2.724h8.171l8.256,8.171v-8.171h2.724a2.742,2.742,0,0,0,2.724-2.724V130.724A2.668,2.668,0,0,0,35.409,128Z" transform="translate(0 -128)" fill="#cf2161"/>
</svg>
