<svg id="icons" xmlns="http://www.w3.org/2000/svg" width="14" height="14" viewBox="0 0 14 14">
  <path id="user2" d="M7,0a7,7,0,1,0,7,7A7.021,7.021,0,0,0,7,0ZM7,2.333A2.664,2.664,0,0,1,9.333,5.25,2.664,2.664,0,0,1,7,8.167,2.664,2.664,0,0,1,4.667,5.25,2.664,2.664,0,0,1,7,2.333Zm3.85,9.042A5.926,5.926,0,0,1,7,12.833a5.926,5.926,0,0,1-3.85-1.458.567.567,0,0,1-.058-.817,5.242,5.242,0,0,1,2.45-1.575,3.213,3.213,0,0,0,2.917,0,4.969,4.969,0,0,1,2.45,1.575A.525.525,0,0,1,10.85,11.375Z" fill="#7b7b7b"/>
</svg>
