<svg xmlns="http://www.w3.org/2000/svg" width="38.133" height="34.781" viewBox="0 0 38.133 34.781">
  <path id="_753131_fire_place_flame_hot_icon" data-name="753131_fire_place_flame_hot_icon" d="M37.11,2.823H1.046A1.034,1.034,0,0,0,.012,3.858V36.57A1.034,1.034,0,0,0,1.046,37.6H37.11a1.035,1.035,0,0,0,1.035-1.035V3.858A1.035,1.035,0,0,0,37.11,2.823ZM23.269,33.01c1.684-.648,4.582-2.388,3.476-6.543-.764-2.883-3-4.176-4.587-6.148s-2-2.53-1.557-4.044c-2.09,1.722-2.443,3.045-1.943,5.132s-.059,2.325-.794,2.5-1.087-.59-1-1.3c-1.146.737-4.705,2.589-3.558,6.647a6.745,6.745,0,0,0,5.235,4.089,10.911,10.911,0,0,0,1.172.085,18.788,18.788,0,0,1-2.826-.13,9.879,9.879,0,0,1-7.672-5.991c-1.68-5.948,3.534-8.664,5.215-9.741-.129,1.035.387,2.154,1.466,1.9s1.9-.6,1.164-3.663-.215-5,2.845-7.523c-.647,2.219-.044,3.039,2.284,5.928s5.6,4.783,6.723,9.007C30.663,29.781,25.581,32.245,23.269,33.01Z" transform="translate(-0.012 -2.823)" fill="#cf2161"/>
</svg>
